<svg width="814" height="1040" viewBox="0 0 814 1040" fill="none" xmlns="http://www.w3.org/2000/svg">
<rect width="814" height="1040" rx="133" fill="white"/>
<path d="M136.912 249.427H67.0813V569.091C232.364 473.089 275.26 524.304 276.048 561.911V793.71H346.928V549.603C334.957 409.019 201.929 422.193 136.912 446.353V249.427Z" fill="#4D3179"/>
<path d="M274.626 249.427C257.536 285.746 217.414 390.421 201.008 409.275C213.541 405.518 246.073 400.19 281.199 415.765C299.779 379.104 342.46 274.019 351.925 249.427H274.626Z" fill="#4D3179"/>
<path d="M67.0814 792.924V605.395C84.0377 591.894 121.891 572.79 137.655 571.701V792.924H67.0814Z" fill="#4D3179"/>
<path d="M67.3959 248.113L331.174 249.684L303.796 323.248L67 321.837L67.3959 248.113Z" fill="#4D3179"/>
<path d="M403.189 350.925H473.337V792.924H403.189V350.925Z" fill="#4D3179"/>
<path d="M574.095 727.542L574.095 797.4L403.614 794.263L403.614 727.542L574.095 727.542Z" fill="#4D3179"/>
<path d="M745.891 728.566L745.891 795.829L623.62 795.829L623.812 729.11L745.891 728.566Z" fill="#4D3179"/>
<path d="M473.337 313.758V249.272C568.746 248.678 754.099 357.833 746.702 795.611L678.025 795.611C678.025 645.592 668.022 384.999 473.337 313.758Z" fill="#4D3179"/>
<path d="M403.614 308.083C427.422 308.083 514.139 317.842 545.611 349.581V268.409C534.371 260.385 502.15 244.07 463.185 243H403.614V308.083Z" fill="#4D3179"/>
</svg>
